<svg width="29" height="31" viewBox="0 0 29 31" fill="none" xmlns="http://www.w3.org/2000/svg">
<path d="M19.495 0.083313H13.4917C10.7723 0.083313 8.617 0.083313 6.93196 0.31148C5.19604 0.545813 3.79158 1.03915 2.68467 2.15069C1.57621 3.26223 1.08442 4.67285 0.851625 6.41494C0.625 8.10769 0.625 10.2706 0.625 13.0009V22.0012C0.625 24.326 2.04333 26.3179 4.05829 27.1534C3.955 25.7505 3.955 23.7849 3.955 22.1476V14.4239C3.955 12.449 3.955 10.7455 4.13692 9.38265C4.33271 7.92115 4.77363 6.52131 5.90521 5.38511C7.03679 4.2489 8.432 3.80644 9.88733 3.60911C11.244 3.42719 12.9398 3.42719 14.9085 3.42719H19.6415C21.6086 3.42719 23.3014 3.42719 24.6596 3.60911C24.2527 2.57047 23.5424 1.67853 22.6211 1.0496C21.6999 0.420673 20.6105 0.0839386 19.495 0.083313Z" fill="#333333"/>
<path d="M6.1748 14.5704C6.1748 10.3678 6.1748 8.26649 7.47597 6.9607C8.7756 5.65491 10.8676 5.65491 15.0548 5.65491H19.4948C23.6804 5.65491 25.774 5.65491 27.0752 6.9607C28.3763 8.26649 28.3748 10.3678 28.3748 14.5704V22.0012C28.3748 26.2038 28.3748 28.3051 27.0752 29.6109C25.774 30.9167 23.6804 30.9167 19.4948 30.9167H15.0548C10.8692 30.9167 8.7756 30.9167 7.47597 29.6109C6.1748 28.3051 6.1748 26.2038 6.1748 22.0012V14.5704Z" fill="#333333"/>
</svg>
