<svg width="38" height="26" viewBox="0 0 38 26" fill="none" xmlns="http://www.w3.org/2000/svg">
<path d="M2.11112 26C1.51297 26 1.01193 25.792 0.608007 25.376C0.204081 24.96 0.00141469 24.4457 7.27968e-06 23.8333C-0.00140013 23.2209 0.201267 22.7066 0.608007 22.2906C1.01475 21.8746 1.51578 21.6666 2.11112 21.6666H35.8889C36.487 21.6666 36.9888 21.8746 37.3941 22.2906C37.7994 22.7066 38.0014 23.2209 38 23.8333C37.9986 24.4457 37.7959 24.9607 37.392 25.3781C36.9881 25.7956 36.487 26.0029 35.8889 26H2.11112ZM2.11112 15.1666C1.51297 15.1666 1.01193 14.9586 0.608007 14.5427C0.204081 14.1267 0.00141469 13.6124 7.27968e-06 13C-0.00140013 12.3875 0.201267 11.8733 0.608007 11.4573C1.01475 11.0413 1.51578 10.8333 2.11112 10.8333H35.8889C36.487 10.8333 36.9888 11.0413 37.3941 11.4573C37.7994 11.8733 38.0014 12.3875 38 13C37.9986 13.6124 37.7959 14.1274 37.392 14.5448C36.9881 14.9623 36.487 15.1695 35.8889 15.1666H2.11112ZM2.11112 4.33333C1.51297 4.33333 1.01193 4.12533 0.608007 3.70933C0.204081 3.29333 0.00141469 2.77911 7.27968e-06 2.16666C-0.00140013 1.55422 0.201267 1.04 0.608007 0.624C1.01475 0.208 1.51578 0 2.11112 0H35.8889C36.487 0 36.9888 0.208 37.3941 0.624C37.7994 1.04 38.0014 1.55422 38 2.16666C37.9986 2.77911 37.7959 3.29405 37.392 3.7115C36.9881 4.12894 36.487 4.33622 35.8889 4.33333H2.11112Z" fill="#666666"/>
</svg>
