<svg width="32" height="48" viewBox="0 0 32 48" fill="none" xmlns="http://www.w3.org/2000/svg">
<path d="M21.8555 32.3882L20.4521 32.9097C20.4521 32.9097 17.114 34.1463 13.683 25.0558C10.2519 15.9653 13.59 14.7287 13.59 14.7287L14.4734 14.3982C16.6521 13.5918 17.8845 11.263 17.3716 8.91807L16.3244 4.12892C15.689 1.22605 12.6895 -0.486004 9.99189 0.514479L5.15257 2.30745C3.81621 2.80567 2.66152 3.70948 2.13656 5.05897C0.79372 8.51361 -0.981306 16.45 3.66672 28.7698C8.59844 41.8337 16.8924 46.0417 20.496 47.2935C21.6374 47.6904 22.8413 47.5674 23.9553 47.1524L28.3333 45.5285C31.2915 44.434 32.2987 40.7036 30.3375 38.1013L27.2887 34.0505C26.0007 32.3442 23.7974 31.6687 21.8555 32.3882Z" fill="#333333"/>
</svg>
