<svg width="32" height="32" viewBox="0 0 32 32" fill="none" xmlns="http://www.w3.org/2000/svg">
<g clip-path="url(#clip0_3_2)">
<path d="M30.0504 15.9664C30.0504 23.7448 23.7448 30.0504 15.9664 30.0504C8.18794 30.0504 1.88232 23.7448 1.88232 15.9664C1.88232 8.18794 8.18794 1.88232 15.9664 1.88232C23.7448 1.88232 30.0504 8.18794 30.0504 15.9664Z" fill="#1B1B1B"/>
<path d="M30.0504 15.9664C30.0504 23.7448 23.7448 30.0504 15.9664 30.0504C8.18794 30.0504 1.88232 23.7448 1.88232 15.9664C1.88232 8.18794 8.18794 1.88232 15.9664 1.88232C23.7448 1.88232 30.0504 8.18794 30.0504 15.9664Z" fill="url(#paint0_radial_3_2)"/>
<path fill-rule="evenodd" clip-rule="evenodd" d="M16 31.3277C24.4653 31.3277 31.3277 24.4653 31.3277 16C31.3277 7.53472 24.4653 0.672269 16 0.672269C7.53472 0.672269 0.672269 7.53472 0.672269 16C0.672269 24.4653 7.53472 31.3277 16 31.3277ZM16 32C24.8366 32 32 24.8366 32 16C32 7.16343 24.8366 0 16 0C7.16343 0 0 7.16343 0 16C0 24.8366 7.16343 32 16 32Z" fill="url(#paint1_linear_3_2)"/>
<path fill-rule="evenodd" clip-rule="evenodd" d="M20.0236 2.89094C13.2006 2.93184 7.68697 8.38039 7.68697 15.1779C7.68697 22.0011 13.247 27.5323 20.1056 27.5323C22.0363 27.5323 23.864 27.094 25.4939 26.312C25.3698 26.3892 25.2439 26.4644 25.1164 26.5376C23.2603 27.6286 20.8701 28.3025 18.5883 28.3025C11.5896 28.3025 5.91602 22.5988 5.91602 15.563C5.91602 8.52715 11.6216 2.82349 18.6203 2.82349C18.9542 2.82349 19.6854 2.82349 20.0206 2.89071C20.0216 2.89079 20.0226 2.89087 20.0236 2.89094Z" fill="url(#paint2_linear_3_2)"/>
<path fill-rule="evenodd" clip-rule="evenodd" d="M22.1099 3.28931C21.0215 2.98577 19.8743 2.8235 18.689 2.8235C11.6718 2.8235 5.98316 8.5121 5.98316 15.5294C5.98316 22.5467 11.6718 28.2353 18.689 28.2353C21.3067 28.2353 23.7395 27.4437 25.7611 26.0868C23.2264 28.5404 19.7727 30.0504 15.9664 30.0504C8.18794 30.0504 1.88232 23.7448 1.88232 15.9664C1.88232 8.18794 8.18794 1.88232 15.9664 1.88232C18.1688 1.88232 20.2533 2.38789 22.1099 3.28931Z" fill="url(#paint3_linear_3_2)"/>
</g>
<defs>
<radialGradient id="paint0_radial_3_2" cx="0" cy="0" r="1" gradientUnits="userSpaceOnUse" gradientTransform="translate(7.39493 20.6722) rotate(-28.5372) scale(41.9351)">
<stop stop-color="#EDEDED" stop-opacity="0.46"/>
<stop offset="0.386666" stop-color="#4F4F4F" stop-opacity="0.15"/>
<stop offset="0.591666" stop-color="#292929" stop-opacity="0.075"/>
<stop offset="1" stop-color="#1C1C1C" stop-opacity="0"/>
</radialGradient>
<linearGradient id="paint1_linear_3_2" x1="16" y1="0" x2="16" y2="32" gradientUnits="userSpaceOnUse">
<stop stop-color="#DEC489"/>
<stop offset="0.25" stop-color="#F6E0A4"/>
<stop offset="0.5" stop-color="#D1B372"/>
<stop offset="0.75" stop-color="#E3CC97"/>
<stop offset="1" stop-color="#BF9A5E"/>
</linearGradient>
<linearGradient id="paint2_linear_3_2" x1="17.7353" y1="2.6035" x2="17.7353" y2="27.4681" gradientUnits="userSpaceOnUse">
<stop stop-color="#E8E2D4"/>
<stop offset="0.25" stop-color="#E9E2D0"/>
<stop offset="0.5" stop-color="#DFD2B5"/>
<stop offset="0.75" stop-color="#DED8C8"/>
<stop offset="1" stop-color="#C4B59E"/>
</linearGradient>
<linearGradient id="paint3_linear_3_2" x1="1.88232" y1="1.88232" x2="28.861" y2="5.92937" gradientUnits="userSpaceOnUse">
<stop stop-color="#F6E0A4"/>
<stop offset="1" stop-color="#D3B269"/>
</linearGradient>
<clipPath id="clip0_3_2">
<rect width="32" height="32" fill="white"/>
</clipPath>
</defs>
</svg>
